<svg width="163" height="40" viewBox="0 0 163 40" fill="none" xmlns="http://www.w3.org/2000/svg">
<path fill-rule="evenodd" clip-rule="evenodd" d="M20 40C31.0457 40 40 31.0457 40 20C40 8.95431 31.0457 0 20 0C8.9543 0 0 8.95431 0 20C0 31.0457 8.9543 40 20 40ZM9.69231 32.2111V14.5818C9.69231 14.3997 9.7815 14.2291 9.93119 14.1249L19.9113 7.17713C20.1032 7.04351 20.3583 7.04351 20.5502 7.17713L30.5304 14.1249C30.68 14.2291 30.7692 14.3997 30.7692 14.5818V28.6837C30.7692 28.9914 30.5193 29.2408 30.2109 29.2408H15.6607C15.5463 29.2408 15.4347 29.2759 15.3409 29.3413L10.5704 32.6678C10.2004 32.9259 9.69231 32.6617 9.69231 32.2111Z" fill="url(#paint0_linear)"/>
<path d="M82.9053 9.11568L74.0528 21.301L65.2003 9.11568H63V30.0287H68.4752V21.8152L74.04 29.6816H74.0784L79.6304 21.8152V30.0287H85.1057V9.11568H82.9053Z" fill="#330B86"/>
<path d="M93.5232 30.0287H98.9601V21.0825L105.331 9.30849H99.1136L96.2481 15.3112L93.3697 9.30849H87.1653L93.5232 21.0825V30.0287Z" fill="#330B86"/>
<path d="M113.825 30.3115C117.957 30.3115 121.616 27.8564 121.616 23.9103C121.616 20.8511 119.479 18.8717 116.256 17.5092C114.03 16.5708 112.571 16.2624 112.571 15.3112C112.571 14.6042 113.377 14.0258 114.503 14.0258C115.488 14.0258 117.074 14.5014 117.688 15.594L120.848 12.5348C120.042 10.491 117.586 9 114.439 9C110.525 9 107.135 11.5579 107.135 15.1441C107.135 18.2675 109.373 19.9899 111.983 21.1211C114.004 22.0208 116.115 22.9591 116.115 24.026C116.115 24.8744 114.976 25.2985 113.812 25.2985C112.085 25.2985 110.486 24.5273 109.629 23.2548L106.316 26.5196C107.352 28.8076 110.435 30.3115 113.825 30.3115Z" fill="#330B86"/>
<path d="M124.123 30.0287H129.598V9.30849H124.123V30.0287Z" fill="#330B86"/>
<path d="M147.303 9.30849H131.927V14.45H136.877V30.0287H142.365V14.45H147.303V9.30849Z" fill="#330B86"/>
<path d="M163 14.4243V9.30849H149.632V30.0287H163V24.8744H155.043V21.9051H161.593V17.3164H155.043V14.4243H163Z" fill="#330B86"/>
<defs>
<linearGradient id="paint0_linear" x1="2.90598" y1="36.2676" x2="36.7193" y2="-0.923466" gradientUnits="userSpaceOnUse">
<stop offset="0.276042" stop-color="#330B86"/>
<stop offset="1" stop-color="#7329C6"/>
</linearGradient>
</defs>
</svg>
